<svg width="16" height="16" viewBox="0 0 16 16" fill="none" xmlns="http://www.w3.org/2000/svg">
<rect width="16" height="16" rx="2" fill="#6A06FA"/>
<path d="M14.1102 12.375H13.25V6.24999C13.25 6.01792 13.1578 5.79536 12.9937 5.63127C12.8296 5.46717 12.607 5.37499 12.375 5.37499H9.96873C9.91072 5.37499 9.85508 5.39803 9.81405 5.43906C9.77303 5.48008 9.74998 5.53572 9.74998 5.59374V12.375H8.87498V2.77241C8.87643 2.63612 8.84686 2.50128 8.78849 2.37811C8.73013 2.25494 8.64451 2.14666 8.53811 2.06147C8.39308 1.9484 8.21611 1.88389 8.03233 1.87712C7.84856 1.87035 7.66732 1.92165 7.51436 2.02374L3.13936 4.93749C3.01934 5.01756 2.92099 5.12607 2.85305 5.25335C2.78512 5.38063 2.74971 5.52274 2.74998 5.66702V12.375H1.88975C1.77669 12.3733 1.6672 12.4145 1.58329 12.4903C1.49938 12.5661 1.44729 12.6709 1.43748 12.7835C1.43351 12.8433 1.44188 12.9034 1.46208 12.9598C1.48229 13.0163 1.51388 13.068 1.55491 13.1118C1.59594 13.1555 1.64552 13.1904 1.70058 13.2141C1.75565 13.2379 1.81501 13.2501 1.87498 13.25H14.125C14.185 13.2501 14.2443 13.2379 14.2994 13.2141C14.3544 13.1904 14.404 13.1555 14.4451 13.1118C14.4861 13.068 14.5177 13.0163 14.5379 12.9598C14.5581 12.9034 14.5665 12.8433 14.5625 12.7835C14.5527 12.6709 14.5006 12.5661 14.4167 12.4903C14.3328 12.4145 14.2233 12.3733 14.1102 12.375ZM5.15623 11.0625C5.15637 11.1225 5.14417 11.1818 5.12039 11.2369C5.09661 11.2919 5.06177 11.3415 5.01802 11.3826C4.97428 11.4236 4.92256 11.4552 4.86609 11.4754C4.80962 11.4956 4.74959 11.504 4.68975 11.5C4.57701 11.4902 4.47218 11.438 4.39637 11.354C4.32057 11.27 4.27943 11.1603 4.28123 11.0472V10.2023C4.27969 10.0892 4.32094 9.97981 4.39671 9.89593C4.47248 9.81205 4.57715 9.75991 4.68975 9.74999C4.74959 9.74601 4.80962 9.75439 4.86609 9.77459C4.92256 9.79479 4.97428 9.82638 5.01802 9.86741C5.06177 9.90844 5.09661 9.95803 5.12039 10.0131C5.14417 10.0681 5.15637 10.1275 5.15623 10.1875V11.0625ZM5.15623 7.99999C5.15637 8.05996 5.14417 8.11933 5.12039 8.17439C5.09661 8.22945 5.06177 8.27903 5.01802 8.32006C4.97428 8.36109 4.92256 8.39269 4.86609 8.41289C4.80962 8.43309 4.74959 8.44146 4.68975 8.43749C4.57706 8.42755 4.4723 8.37535 4.39652 8.29135C4.32074 8.20735 4.27955 8.09779 4.28123 7.98468V7.13975C4.27969 7.02673 4.32094 6.91731 4.39671 6.83343C4.47248 6.74955 4.57715 6.69741 4.68975 6.68749C4.74959 6.68351 4.80962 6.69189 4.86609 6.71209C4.92256 6.73229 4.97428 6.76388 5.01802 6.80491C5.06177 6.84594 5.09661 6.89553 5.12039 6.95059C5.14417 7.00565 5.15637 7.06501 5.15623 7.12499V7.99999ZM7.34373 11.0625C7.34387 11.1225 7.33167 11.1818 7.30789 11.2369C7.28411 11.2919 7.24927 11.3415 7.20552 11.3826C7.16178 11.4236 7.11006 11.4552 7.05359 11.4754C6.99712 11.4956 6.93709 11.504 6.87725 11.5C6.7647 11.4902 6.66003 11.4382 6.58425 11.3544C6.50847 11.2706 6.4672 11.1612 6.46873 11.0483V10.2023C6.46733 10.0893 6.50865 9.98004 6.5844 9.89627C6.66015 9.81251 6.76475 9.76045 6.87725 9.75053C6.93709 9.74656 6.99712 9.75493 7.05359 9.77513C7.11006 9.79533 7.16178 9.82693 7.20552 9.86796C7.24927 9.90899 7.28411 9.95857 7.30789 10.0136C7.33167 10.0687 7.34387 10.1281 7.34373 10.188V11.0625ZM7.34373 7.99999C7.34387 8.05996 7.33167 8.11933 7.30789 8.17439C7.28411 8.22945 7.24927 8.27903 7.20552 8.32006C7.16178 8.36109 7.11006 8.39269 7.05359 8.41289C6.99712 8.43309 6.93709 8.44146 6.87725 8.43749C6.76475 8.42757 6.66015 8.37551 6.5844 8.29175C6.50865 8.20799 6.46733 8.0987 6.46873 7.98577V7.13975C6.46733 7.02682 6.50865 6.91754 6.5844 6.83377C6.66015 6.75001 6.76475 6.69795 6.87725 6.68803C6.93709 6.68406 6.99712 6.69243 7.05359 6.71263C7.11006 6.73283 7.16178 6.76443 7.20552 6.80546C7.24927 6.84649 7.28411 6.89607 7.30789 6.95113C7.33167 7.0062 7.34387 7.06556 7.34373 7.12553V7.99999Z" fill="white"/>
</svg>
