<?xml version="1.0" encoding="utf-8"?>
<!-- Generator: Adobe Illustrator 16.0.0, SVG Export Plug-In . SVG Version: 6.00 Build 0)  -->
<!DOCTYPE svg PUBLIC "-//W3C//DTD SVG 1.0//EN" "http://www.w3.org/TR/2001/REC-SVG-20010904/DTD/svg10.dtd">
<svg version="1.0" id="Layer_1" xmlns="http://www.w3.org/2000/svg" xmlns:xlink="http://www.w3.org/1999/xlink" x="0px" y="0px"
	 width="708.66px" height="708.66px" viewBox="0 0 708.66 708.66" enable-background="new 0 0 708.66 708.66" xml:space="preserve">
<g>
	<path fill="none" stroke="#373431" stroke-width="12" stroke-linecap="round" stroke-linejoin="round" stroke-miterlimit="10" d="
		M620.047,531.482c0,19.494-15.941,35.436-35.426,35.436H124.019c-19.508,0-35.449-15.941-35.449-35.436v-17.712
		c0-19.493,15.941-35.437,35.449-35.437h460.602c19.484,0,35.426,15.943,35.426,35.437V531.482z"/>
	
		<rect x="53.144" y="566.918" fill="none" stroke="#373431" stroke-width="12" stroke-linecap="round" stroke-linejoin="round" stroke-miterlimit="10" width="602.348" height="53.148"/>
	
		<polygon fill="none" stroke="#373431" stroke-width="12" stroke-linecap="round" stroke-linejoin="round" stroke-miterlimit="10" points="
		106.293,655.502 88.57,655.502 88.57,620.066 124.019,620.066 	"/>
	
		<polygon fill="none" stroke="#373431" stroke-width="12" stroke-linecap="round" stroke-linejoin="round" stroke-miterlimit="10" points="
		602.347,655.502 620.047,655.502 620.047,620.066 584.621,620.066 	"/>
	<path fill="none" stroke="#373431" stroke-width="12" stroke-linecap="round" stroke-linejoin="round" stroke-miterlimit="10" d="
		M212.59,301.174c-39.137,0-70.871,31.725-70.871,70.865v106.295h425.18V372.039c0-39.134-31.711-70.859-70.848-70.859
		L212.59,301.174z"/>
	<path fill="none" stroke="#373431" stroke-width="12" stroke-linecap="round" stroke-linejoin="round" stroke-miterlimit="10" d="
		M496.051,318.898l-283.461-0.006c-29.32,0-53.148,23.839-53.148,53.147v106.295h389.758V372.039
		C549.199,342.738,525.347,318.898,496.051,318.898z"/>
	<path fill="none" stroke="#373431" stroke-width="12" stroke-linecap="round" stroke-linejoin="round" stroke-miterlimit="10" d="
		M336.609,442.904c0,19.488-15.941,35.43-35.449,35.43h-70.871c-19.48,0-35.426-15.941-35.426-35.43v-17.717
		c0-19.488,15.945-35.43,35.426-35.43h70.871c19.508,0,35.449,15.941,35.449,35.43V442.904z"/>
	<path fill="none" stroke="#373431" stroke-width="12" stroke-linecap="round" stroke-linejoin="round" stroke-miterlimit="10" d="
		M513.75,442.904c0,19.488-15.941,35.43-35.422,35.43h-70.871c-19.484,0-35.426-15.941-35.426-35.43v-17.717
		c0-19.488,15.941-35.43,35.426-35.43h70.871c19.48,0,35.422,15.941,35.422,35.43V442.904z"/>
	<path fill="none" stroke="#373431" stroke-width="12" stroke-linecap="round" stroke-linejoin="round" stroke-miterlimit="10" d="
		M620.047,527.943c-17.262,3.381-35.668,1.916-53.148-5.322c-23.633-9.777-48.973-9.07-70.871,0
		c-21.875,9.081-47.238,9.789-70.848,0c-23.633-9.777-48.973-9.07-70.871,0c-21.875,9.081-47.242,9.789-70.848,0
		c-23.633-9.777-48.973-9.07-70.871,0c-21.875,9.081-47.242,9.789-70.848,0.012c-17.48-7.238-35.887-8.703-53.172-5.322v-3.54
		c0-19.493,15.941-35.437,35.449-35.437h460.602c19.484,0,35.426,15.943,35.426,35.437V527.943z"/>
	
		<rect x="177.164" y="79.728" fill="none" stroke="#373431" stroke-width="12" stroke-linecap="round" stroke-linejoin="round" stroke-miterlimit="10" width="354.313" height="177.161"/>
	
		<rect x="203.726" y="106.301" fill="none" stroke="#373431" stroke-width="12" stroke-linecap="round" stroke-linejoin="round" stroke-miterlimit="10" width="301.164" height="124.014"/>
	
		<polygon fill="none" stroke="#373431" stroke-width="12" stroke-linecap="round" stroke-linejoin="round" stroke-miterlimit="10" points="
		248.011,79.721 354.308,53.154 460.601,79.728 354.308,53.154 	"/>
	<path fill="none" stroke="#373431" stroke-width="12" stroke-linecap="round" stroke-linejoin="round" stroke-miterlimit="10" d="
		M177.164,79.728l26.563,26.58L177.164,79.728z"/>
	<path fill="none" stroke="#373431" stroke-width="12" stroke-linecap="round" stroke-linejoin="round" stroke-miterlimit="10" d="
		M504.89,106.301l26.586-26.574L504.89,106.301z"/>
	<path fill="none" stroke="#373431" stroke-width="12" stroke-linecap="round" stroke-linejoin="round" stroke-miterlimit="10" d="
		M504.89,230.309l26.586,26.58L504.89,230.309z"/>
	<path fill="none" stroke="#373431" stroke-width="12" stroke-linecap="round" stroke-linejoin="round" stroke-miterlimit="10" d="
		M203.726,230.309l-26.563,26.574L203.726,230.309z"/>
	<path fill="none" stroke="#373431" stroke-width="12" stroke-linecap="round" stroke-linejoin="round" stroke-miterlimit="10" d="
		M602.347,483.291V248.026V483.291z"/>
	
		<polygon fill="none" stroke="#373431" stroke-width="12" stroke-linecap="round" stroke-linejoin="round" stroke-miterlimit="10" points="
		620.047,248.026 584.621,248.026 575.761,141.731 628.906,141.731 	"/>
	<path fill="none" stroke="#373431" stroke-width="12" stroke-linecap="round" stroke-linejoin="round" stroke-miterlimit="10" d="
		M106.293,483.291V248.026V483.291z"/>
	
		<polygon fill="none" stroke="#373431" stroke-width="12" stroke-linecap="round" stroke-linejoin="round" stroke-miterlimit="10" points="
		124.019,248.026 88.57,248.026 79.707,141.731 132.879,141.731 	"/>
	
		<polygon fill="none" stroke="#373431" stroke-width="12" stroke-linecap="round" stroke-linejoin="round" stroke-miterlimit="10" points="
		442.879,168.317 398.594,212.597 363.168,177.173 345.445,194.885 292.297,141.744 203.726,230.315 504.89,230.315 	"/>
</g>
</svg>
